<mxfile host="app.diagrams.net" agent="Mozilla/5.0 (Windows NT 10.0; Win64; x64) AppleWebKit/537.36 (KHTML, like Gecko) Chrome/129.0.0.0 Safari/537.36" version="24.7.6">
  <diagram name="Trang-1" id="DZac3HbgjEwMKorueeGq">
    <mxGraphModel dx="1290" dy="530" grid="1" gridSize="10" guides="1" tooltips="1" connect="1" arrows="1" fold="1" page="1" pageScale="1" pageWidth="827" pageHeight="1169" math="0" shadow="0">
      <root>
        <mxCell id="0" />
        <mxCell id="1" parent="0" />
        <mxCell id="iaXJayuQMeKWNDNZLDfv-4" style="edgeStyle=orthogonalEdgeStyle;rounded=0;orthogonalLoop=1;jettySize=auto;html=1;entryX=0.5;entryY=0;entryDx=0;entryDy=0;" edge="1" parent="1" source="iaXJayuQMeKWNDNZLDfv-1" target="iaXJayuQMeKWNDNZLDfv-2">
          <mxGeometry relative="1" as="geometry" />
        </mxCell>
        <mxCell id="iaXJayuQMeKWNDNZLDfv-5" style="edgeStyle=orthogonalEdgeStyle;rounded=0;orthogonalLoop=1;jettySize=auto;html=1;entryX=0.5;entryY=0;entryDx=0;entryDy=0;" edge="1" parent="1" source="iaXJayuQMeKWNDNZLDfv-1" target="iaXJayuQMeKWNDNZLDfv-3">
          <mxGeometry relative="1" as="geometry" />
        </mxCell>
        <mxCell id="iaXJayuQMeKWNDNZLDfv-1" value="QUẢN LÍ HỆ THỐNG" style="rounded=0;whiteSpace=wrap;html=1;" vertex="1" parent="1">
          <mxGeometry x="380" y="140" width="120" height="60" as="geometry" />
        </mxCell>
        <mxCell id="iaXJayuQMeKWNDNZLDfv-2" value="QUẢN LÝ RẠP" style="rounded=0;whiteSpace=wrap;html=1;" vertex="1" parent="1">
          <mxGeometry x="170" y="240" width="120" height="60" as="geometry" />
        </mxCell>
        <mxCell id="iaXJayuQMeKWNDNZLDfv-3" value="KHÁCH HÀNG" style="rounded=0;whiteSpace=wrap;html=1;" vertex="1" parent="1">
          <mxGeometry x="580" y="240" width="120" height="60" as="geometry" />
        </mxCell>
      </root>
    </mxGraphModel>
  </diagram>
</mxfile>
